<svg xmlns="http://www.w3.org/2000/svg" xmlns:xlink="http://www.w3.org/1999/xlink" width="1000" zoomAndPan="magnify" viewBox="0 0 750 749.999995" height="1000" preserveAspectRatio="xMidYMid meet" version="1.0"><defs><clipPath id="8df8eadf1b"><path d="M 149 112.878906 L 618 112.878906 L 618 315 L 149 315 Z M 149 112.878906 " clip-rule="nonzero"/></clipPath><clipPath id="46f4a3f066"><path d="M 149 435 L 618 435 L 618 637.128906 L 149 637.128906 Z M 149 435 " clip-rule="nonzero"/></clipPath><clipPath id="5c54aeaca6"><path d="M 124.019531 304 L 458 304 L 458 446 L 124.019531 446 Z M 124.019531 304 " clip-rule="nonzero"/></clipPath></defs><g clip-path="url(#8df8eadf1b)"><path fill="#ffffff" d="M 194.863281 275.453125 C 225.460938 275.453125 252.859375 289.351562 271.136719 311.140625 C 294.429688 265.734375 341.707031 234.570312 396.152344 234.570312 C 440.699219 234.570312 481.601562 254.992188 508.371094 290.601562 C 528.5625 317.46875 566.707031 322.878906 593.566406 302.679688 C 620.429688 282.484375 625.835938 244.339844 605.644531 217.480469 C 556.40625 151.980469 478.09375 112.878906 396.152344 112.878906 C 282.652344 112.878906 185.796875 185.402344 149.421875 286.535156 C 163.0625 279.5 178.488281 275.453125 194.863281 275.453125 Z M 194.863281 275.453125 " fill-opacity="1" fill-rule="nonzero"/></g><g clip-path="url(#46f4a3f066)"><path fill="#ffffff" d="M 593.566406 447.347656 C 566.71875 427.164062 528.558594 432.558594 508.371094 459.425781 C 481.601562 495.03125 440.703125 515.453125 396.152344 515.453125 C 341.710938 515.453125 294.4375 484.296875 271.140625 438.890625 C 252.863281 460.683594 225.464844 474.585938 194.863281 474.585938 C 178.488281 474.585938 163.066406 470.539062 149.425781 463.507812 C 185.808594 564.628906 282.65625 637.144531 396.152344 637.144531 C 478.097656 637.144531 556.414062 598.042969 605.644531 532.542969 C 625.835938 505.679688 620.429688 467.539062 593.566406 447.347656 Z M 593.566406 447.347656 " fill-opacity="1" fill-rule="nonzero"/></g><g clip-path="url(#5c54aeaca6)"><path fill="#ffffff" d="M 456.96875 372.628906 C 458.296875 407.3125 430.527344 435.855469 396.179688 435.855469 C 375.269531 435.855469 356.90625 425.34375 345.953125 409.300781 C 336.273438 395.199219 320.839844 386.070312 303.695312 386.070312 L 300.042969 386.070312 C 281.84375 386.070312 264.808594 395.472656 255.515625 411.128906 C 243.234375 431.8125 220.667969 445.699219 194.890625 445.699219 C 159.601562 445.699219 130.449219 419.8125 125.140625 386.070312 C 124.144531 380.871094 124.308594 370.914062 125.140625 363.945312 C 130.503906 330.203125 159.601562 304.371094 194.890625 304.371094 C 220.667969 304.371094 243.238281 318.199219 255.515625 338.886719 C 264.808594 354.539062 281.84375 363.945312 300.042969 363.945312 L 302.589844 363.945312 C 320.066406 363.945312 336.109375 355.039062 346.007812 340.601562 C 357.847656 323.398438 378.257812 312.554688 401.101562 314.382812 C 431.414062 316.761719 455.804688 342.261719 456.96875 372.628906 Z M 456.96875 372.628906 " fill-opacity="1" fill-rule="nonzero"/></g></svg>